HIERARCHY
ROOT RootJoint
{
    OFFSET   0.000000   0.000000   0.000000
    CHANNELS 6 Xposition Yposition Zposition Xrotation Yrotation Zrotation
    JOINT lHip
    {
        OFFSET   0.100000  -0.051395   0.000000
        CHANNELS 3 Xrotation Yrotation Zrotation
        JOINT lKnee
        {
            OFFSET   0.000000  -0.410000   0.000000
            CHANNELS 3 Xrotation Yrotation Zrotation
            JOINT lAnkle
            {
                OFFSET   0.000000  -0.390000   0.000000
                CHANNELS 3 Xrotation Yrotation Zrotation
                JOINT lToeJoint
                {
                    OFFSET   0.000000  -0.050000   0.130000
                    CHANNELS 3 Xrotation Yrotation Zrotation
                    End Site
                    {
                        OFFSET   0.010000   0.002000   0.060000
                    }
                }
            }
        }
    }
    JOINT pelvis_lowerback
    {
        OFFSET   0.000000   0.093605   0.000000
        CHANNELS 3 Xrotation Yrotation Zrotation
        JOINT lowerback_torso
        {
            OFFSET   0.000000   0.100000   0.000000
            CHANNELS 3 Xrotation Yrotation Zrotation
            JOINT lTorso_Clavicle
            {
                OFFSET   0.001000   0.157500   0.000000
                CHANNELS 3 Xrotation Yrotation Zrotation
                JOINT lShoulder
                {
                    OFFSET   0.117647   0.000000   0.000000
                    CHANNELS 3 Xrotation Yrotation Zrotation
                    JOINT lElbow
                    {
                        OFFSET   0.245000   0.000000   0.000000
                        CHANNELS 3 Xrotation Yrotation Zrotation
                        JOINT lWrist
                        {
                            OFFSET   0.240000   0.000000   0.000000
                            CHANNELS 3 Xrotation Yrotation Zrotation
                            End Site
                            {
                                OFFSET   0.116353  -0.002500   0.000000
                            }
                        }
                    }
                }
            }
            JOINT rTorso_Clavicle
            {
                OFFSET  -0.001000   0.157500   0.000000
                CHANNELS 3 Xrotation Yrotation Zrotation
                JOINT rShoulder
                {
                    OFFSET  -0.117647   0.000000   0.000000
                    CHANNELS 3 Xrotation Yrotation Zrotation
                    JOINT rElbow
                    {
                        OFFSET  -0.245000   0.000000   0.000000
                        CHANNELS 3 Xrotation Yrotation Zrotation
                        JOINT rWrist
                        {
                            OFFSET  -0.240000   0.000000   0.000000
                            CHANNELS 3 Xrotation Yrotation Zrotation
                            End Site
                            {
                                OFFSET  -0.116353  -0.002500   0.000000
                            }
                        }
                    }
                }
            }
            JOINT torso_head
            {
                OFFSET   0.000000   0.282350   0.000000
                CHANNELS 3 Xrotation Yrotation Zrotation
                End Site
                {
                    OFFSET   0.000000   0.192650   0.000000
                }
            }
        }
    }
    JOINT rHip
    {
        OFFSET  -0.100000  -0.051395   0.000000
        CHANNELS 3 Xrotation Yrotation Zrotation
        JOINT rKnee
        {
            OFFSET   0.000000  -0.410000   0.000000
            CHANNELS 3 Xrotation Yrotation Zrotation
            JOINT rAnkle
            {
                OFFSET   0.000000  -0.390000   0.000000
                CHANNELS 3 Xrotation Yrotation Zrotation
                JOINT rToeJoint
                {
                    OFFSET   0.000000  -0.050000   0.130000
                    CHANNELS 3 Xrotation Yrotation Zrotation
                    End Site
                    {
                        OFFSET  -0.010000   0.002000   0.060000
                    }
                }
            }
        }
    }
}
MOTION
Frames: 10
Frame Time:   0.008333
  0.005893   0.900847   0.000206  -1.419000   1.345000   1.406000  -6.080000  -0.522000  -6.738000  12.557300   2.608350  -3.990350  -5.366000   0.338000   9.157000  -0.002000   0.000000  -0.007000   3.765080   0.353236  -1.115700   3.268060   1.263210   0.409372   3.780780  -2.390130 -21.033100   6.371990 -40.586200 -43.740700   0.230451 -19.147200   2.518410  -4.885000   8.110000   1.652000   0.063387  -7.386100  19.742600  17.384200  27.997200  51.649400   0.239465  10.897500   0.201194   5.565620  -7.011860   2.286240   2.260840  -0.319746  -0.279636 -29.970000  -9.377000  -2.926000  65.445400  -3.252380  -2.202310   6.923590  -2.126220  -7.974430   0.000375   0.000483  -0.001124
  0.006607   0.900731   0.008985  -1.375691   1.681588   1.329409  -5.360243  -0.653663  -6.678218  12.232802   2.472415  -3.912474  -5.782465   0.216752   9.066564  -0.002250   0.000000  -0.007000   3.799046   0.335847  -1.216686   3.259959   0.958238   0.661225   3.771351  -2.452924 -21.027110   5.594247 -40.756280 -43.706790   0.227357 -19.416743   2.640845  -4.804183   7.943519   1.761459   0.070896  -7.503489  19.739453  17.665718  27.764170  51.790645   0.243413  10.892042   0.277462   5.694141  -7.018916   2.302958   2.253750  -0.315741  -0.277196 -30.543498  -9.373245  -2.807535  63.792672  -3.245301  -1.968920   5.823535  -2.028327  -7.863727  -0.022223  -0.001845   0.070908
  0.007321   0.900615   0.017764  -1.331923   2.018118   1.252549  -4.640328  -0.784564  -6.616784  11.908521   2.336042  -3.835378  -6.199118   0.096165   8.975249  -0.002500   0.000000  -0.007000   3.832982   0.318399  -1.317661   3.253198   0.653234   0.913016   3.761928  -2.515718 -21.021130   4.814638 -40.926694 -43.675851   0.224869 -19.686291   2.763469  -4.723078   7.777192   1.871111   0.078401  -7.620879  19.736321  17.947285  27.531756  51.932880   0.247368  10.886590   0.353729   5.822667  -7.025935   2.319693   2.246660  -0.311737  -0.274756 -31.116998  -9.370659  -2.689039  62.139935  -3.244945  -1.735423   4.723357  -1.932575  -7.751170  -0.044819  -0.004202   0.142940
  0.008035   0.900499   0.026543  -1.287694   2.354589   1.175414  -3.920250  -0.914684  -6.553709  11.584455   2.199236  -3.759063  -6.615962  -0.023754   8.883059  -0.002750   0.000000  -0.007000   3.866886   0.300891  -1.418626   3.247779   0.348202   1.164760   3.752511  -2.578514 -21.015160   4.033129 -41.097411 -43.647912   0.222991 -19.955844   2.886288  -4.641684   7.611018   1.980958   0.085901  -7.738269  19.733203  18.228910  27.299964  52.076100   0.251331  10.881142   0.429995   5.951197  -7.032916   2.336443   2.239570  -0.307733  -0.272315 -31.690499  -9.369244  -2.570524  60.487206  -3.251313  -1.502012   3.623053  -1.839001  -7.636800  -0.067411  -0.006587   0.214970
  0.008749   0.900383   0.035322  -1.243000   2.691000   1.098000  -3.200000  -1.044000  -6.489000  11.260600   2.062000  -3.683530  -7.033000  -0.143000   8.790000  -0.003000   0.000000  -0.007000   3.900760   0.283323  -1.519580   3.243700   0.043150   1.416470   3.743100  -2.641310 -21.009200   3.249690 -41.268400 -43.623000   0.221725 -20.225400   3.009310  -4.560000   7.445000   2.091000   0.093397  -7.855660  19.730100  18.510600  27.068800  52.220300   0.255301  10.875700   0.506260   6.079730  -7.039860   2.353210   2.232480  -0.303729  -0.269874 -32.264000  -9.369000  -2.452000  58.834500  -3.264400  -1.268880   2.522620  -1.747640  -7.520660  -0.090000  -0.009000   0.287000
  0.008579   0.899808   0.044461  -1.189702   2.983375   1.009700  -2.570863  -1.572978  -6.436495  11.046776   2.165128  -3.636467  -7.533844  -0.086568   8.727002  -0.004500   0.000250  -0.006000   3.882168   0.234739  -1.612769   3.302198  -0.326037   1.635113   3.673498  -2.631728 -20.924341   2.504637 -41.291757 -43.882148   0.216518 -20.394886   3.126331  -4.391105   7.266092   2.240040   0.163014  -7.826561  19.792885  18.786836  26.959972  52.286066   0.258906  10.941300   0.511399   5.843654  -7.164910   2.649046   2.205250  -0.288407  -0.256624 -32.520344  -9.301889  -2.322415  56.541235  -3.340191  -0.914616   2.287420  -1.764535  -7.430367  -0.115503  -0.010447   0.366251
  0.008410   0.899233   0.053601  -1.135938   3.275667   0.921104  -1.941056  -2.101346  -6.378166  10.832852   2.268081  -3.589016  -8.034625  -0.029588   8.664499  -0.006000   0.000500  -0.005000   3.863498   0.186186  -1.705974   3.362107  -0.694999   1.854145   3.603882  -2.622249 -20.839472   1.759199 -41.312579 -44.141767   0.211676 -20.564382   3.243464  -4.221808   7.087621   2.389553   0.232593  -7.797386  19.855630  19.062947  26.851428  52.352357   0.262505  11.006899   0.516534   5.608166  -7.291166   2.944443   2.178017  -0.273090  -0.243366 -32.776792  -9.235351  -2.192552  54.248286  -3.430072  -0.563644   2.052244  -1.781800  -7.340143  -0.141004  -0.011929   0.445501
  0.008241   0.898659   0.062740  -1.081705   3.567876   0.832205  -1.310470  -2.629042  -6.314004  10.618827   2.370855  -3.541177  -8.535343   0.027936   8.602497  -0.007500   0.000750  -0.004000   3.844748   0.137663  -1.799194   3.423433  -1.063728   2.073585   3.534253  -2.612873 -20.754591   1.013419 -41.330862 -44.401802   0.207198 -20.733887   3.360713  -4.052107   6.909589   2.539539   0.302136  -7.768136  19.918335  19.338934  26.743170  52.419169   0.266099  11.072500   0.521667   5.373270  -7.418625   3.239398   2.150780  -0.257781  -0.230101 -33.033344  -9.169388  -2.062413  51.955696  -3.533898  -0.216519   1.817094  -1.799435  -7.249991  -0.166503  -0.013447   0.524751
  0.008072   0.898084   0.071880  -1.027000   3.860000   0.743000  -0.679000  -3.156000  -6.244000  10.404700   2.473450  -3.492950  -9.036000   0.086000   8.541000  -0.009000   0.001000  -0.003000   3.825920   0.089170  -1.892430   3.486180  -1.432220   2.293450   3.464610  -2.603600 -20.669700   0.267342 -41.346600 -44.662200   0.203087 -20.903400   3.478080  -3.882000   6.732000   2.690000   0.371641  -7.738810  19.981000  19.614800  26.635200  52.486500   0.269688  11.138100   0.526796   5.138970  -7.547280   3.533910   2.123540  -0.242477  -0.216829 -33.290000  -9.104000  -1.932000  49.663500  -3.651500   0.126208   1.581970  -1.817440  -7.159910  -0.192000  -0.015000   0.604000
  0.007840   0.896804   0.081151  -0.899212   4.048112   0.709894  -0.193623  -3.472775  -6.220180  10.434687   2.488186  -3.459641  -9.682871   0.037832   8.635086  -0.009500   0.001250  -0.003250   3.722088   0.040519  -2.036861   3.540982  -1.716238   2.488331   3.401163  -2.560450 -20.604893  -0.440989 -41.277448 -44.987226   0.199264 -21.083267   3.573378  -3.624021   6.574863   2.783978   0.434980  -7.654057  20.023279  19.854162  26.559921  52.576114   0.273374  11.196424   0.532114   4.844834  -7.483068   3.921631   2.094887  -0.221260  -0.212826 -33.314959  -9.088930  -1.824003  46.765906  -3.633480   0.359107   1.877637  -1.817279  -7.007864  -0.144509  -0.012564   0.454503
